<?xml version="1.0" ?><!DOCTYPE svg  PUBLIC '-//W3C//DTD SVG 1.1//EN'  'http://www.w3.org/Graphics/SVG/1.1/DTD/svg11.dtd'><svg enable-background="new 0 0 25.102 63.082" height="63.082px" id="Layer_1" version="1.1" viewBox="0 0 25.102 63.082" width="25.102px" xml:space="preserve" xmlns="http://www.w3.org/2000/svg" xmlns:xlink="http://www.w3.org/1999/xlink"><path d="M25.102,19.017c0-0.829-0.672-1.5-1.5-1.5H1.5c-0.829,0-1.5,0.671-1.5,1.5v9.169c0,0.002,0,0.004,0,0.006  c0,0.01,0.003,0.02,0.003,0.029c0.003,0.112,0.019,0.22,0.045,0.325c0.008,0.031,0.019,0.062,0.029,0.093  c0.028,0.089,0.064,0.173,0.107,0.254c0.01,0.018,0.013,0.038,0.023,0.055l4.621,7.833v21.854c0,2.452,1.995,4.447,4.447,4.447h6.55  c2.452,0,4.446-1.995,4.446-4.447V36.78l4.621-7.833c0.011-0.018,0.014-0.038,0.023-0.056c0.044-0.081,0.079-0.165,0.107-0.253  c0.01-0.031,0.021-0.062,0.028-0.094c0.026-0.104,0.043-0.212,0.045-0.324c0.001-0.01,0.003-0.02,0.003-0.029  c0-0.002,0.001-0.004,0.001-0.006V19.017z M3,20.517h19.102v6.169H3V20.517z M15.826,60.082h-6.55c-0.798,0-1.447-0.649-1.447-1.447  V37.871h9.443v20.764C17.272,59.433,16.624,60.082,15.826,60.082z M17.916,34.871H7.186l-3.06-5.186h16.848L17.916,34.871z"/><path d="M1.746,13.968c0.829,0,1.5-0.671,1.5-1.5V1.5c0-0.829-0.671-1.5-1.5-1.5s-1.5,0.671-1.5,1.5v10.968  C0.246,13.296,0.917,13.968,1.746,13.968z"/><path d="M12.551,13.968c0.829,0,1.5-0.671,1.5-1.5V1.5c0-0.829-0.671-1.5-1.5-1.5s-1.5,0.671-1.5,1.5v10.968  C11.051,13.296,11.722,13.968,12.551,13.968z"/><path d="M23.356,13.968c0.828,0,1.5-0.671,1.5-1.5V1.5c0-0.829-0.672-1.5-1.5-1.5s-1.5,0.671-1.5,1.5v10.968  C21.856,13.296,22.528,13.968,23.356,13.968z"/></svg>