<svg viewBox="0 0 25.102 63.082" xml:space="preserve" xmlns="http://www.w3.org/2000/svg"><path d="M25.102 19.017a1.5 1.5 0 0 0-1.5-1.5H1.5a1.5 1.5 0 0 0-1.5 1.5v9.175c0 .01.003.02.003.029.003.112.019.22.045.325.008.031.019.062.029.093.028.089.064.173.107.254.01.018.013.038.023.055l4.621 7.833v21.854a4.452 4.452 0 0 0 4.447 4.447h6.55a4.451 4.451 0 0 0 4.446-4.447V36.78l4.621-7.833c.011-.018.014-.038.023-.056.044-.081.079-.165.107-.253.01-.031.021-.062.028-.094.026-.104.043-.212.045-.324l.003-.029.001-.006v-9.168zM3 20.517h19.102v6.169H3v-6.169zm12.826 39.565h-6.55a1.448 1.448 0 0 1-1.447-1.447V37.871h9.443v20.764c0 .798-.648 1.447-1.446 1.447zm2.09-25.211H7.186l-3.06-5.186h16.848l-3.058 5.186zM1.746 13.968a1.5 1.5 0 0 0 1.5-1.5V1.5a1.5 1.5 0 1 0-3 0v10.968a1.5 1.5 0 0 0 1.5 1.5zM12.551 13.968a1.5 1.5 0 0 0 1.5-1.5V1.5a1.5 1.5 0 1 0-3 0v10.968a1.5 1.5 0 0 0 1.5 1.5zM23.356 13.968a1.5 1.5 0 0 0 1.5-1.5V1.5a1.5 1.5 0 1 0-3 0v10.968a1.5 1.5 0 0 0 1.5 1.5z" fill="#ffffff" class="fill-000000"></path></svg>